<svg xmlns="http://www.w3.org/2000/svg" width="600" height="200" viewBox="0 0 600 200">
  <defs>
    <style>
      .cls-1 {
        stroke: #000;
        stroke-width: 1px;
        fill-rule: evenodd;
      }
    </style>
  </defs>
  <path id="About" class="cls-1" d="M152.08,159.8L104.744,37.773h-3.1L56.05,155.337q-5.629,14.55-15.326,16.878v3.88q5.82-.582,14.55-0.582,11.249,0,22.31.582v-3.88q-8.539-.191-12.707-2.91t-4.171-8.73q0-5.428,3.88-15.908L72.54,124.1h46.948l11.834,31.816q2.328,5.82,2.328,9.118a5.34,5.34,0,0,1-3.2,5.335q-3.2,1.455-10.573,1.843v3.88q8.148-.582,24.832-0.582,12.995,0,20.758.582v-3.88q-8.73-.386-13.386-12.416h0ZM74.092,120.223L96.208,62.217l21.728,58.006H74.092ZM227.544,73.469A31.384,31.384,0,0,0,209.6,78.9,34.328,34.328,0,0,0,197.28,94.227V24.193q-7.958,2.719-20.176,2.716-5.82,0-12.028-.582V30.4q8.148,0,11.446,4.074t3.3,13V166.589a41.984,41.984,0,0,1-1.358,11.252l3.3,1.358,13.774-11.64a35,35,0,0,0,25.608,11.252,40.911,40.911,0,0,0,21.825-6.014q9.793-6.011,15.617-17.848t5.82-28.712q0-25.608-10.185-39.188t-26.675-13.58h0Zm-7.954,100.88a30.932,30.932,0,0,1-12.028-2.425,30.171,30.171,0,0,1-10.282-7.081v-61.5q2.91-11.444,9.7-17.751t14.938-6.305q12.025,0,17.848,11.64t5.82,35.308q0,24.641-6.5,36.375t-19.5,11.737h0ZM326.676,73.469q-19.789,0-31.913,13.1t-12.125,39.673q0,26.582,12.125,39.576t31.913,13q19.787,0,31.913-13t12.125-39.576q0-26.576-12.125-39.673T326.676,73.469h0Zm0,3.88q11.64,0,18.429,11.931t6.791,36.957q0,25.026-6.791,36.86t-18.429,11.834q-11.641,0-18.43-11.834t-6.79-36.86q0-25.026,6.79-36.957t18.43-11.931h0Zm146.855-3.3q-7.956,2.719-20.176,2.716-6.015,0-12.028-.582v4.074q8.148,0,11.446,4.074t3.3,13v40.158a45.243,45.243,0,0,1-3.4,17.751,30.784,30.784,0,0,1-9.409,12.707,21.341,21.341,0,0,1-13.386,4.656q-6.6,0-9.8-2.91a13.118,13.118,0,0,1-4.074-7.469,65.733,65.733,0,0,1-.873-11.931V74.051q-7.956,2.719-20.176,2.716-6.015,0-12.028-.582v4.074q8.148,0,11.446,4.074t3.3,13v48.694a67.879,67.879,0,0,0,1.455,15.52,22.323,22.323,0,0,0,4.947,9.894q6.984,7.371,20.176,7.372a33.178,33.178,0,0,0,18.624-5.626q8.535-5.623,13.192-17.654v22.892q7.953-2.718,20.176-2.716,6.012,0,12.028.582v-4.074q-8.148,0-11.446-4.074t-3.3-13V74.051ZM529.4,43.981q-6.6,2.328-17.46,2.716V76.379H493.318v3.88h18.624v64.99q0,10.476,1.649,16.684a22.726,22.726,0,0,0,5.917,10.476,20.483,20.483,0,0,0,7.566,4.85,32.228,32.228,0,0,0,10.864,1.552q20.37,0,25.22-26.772l-3.88-.97q-2.91,11.058-7.178,15.908a13.229,13.229,0,0,1-10.282,4.85q-6.015,0-9.215-3.88t-3.2-12.61V80.259h28.712v-3.88H529.4v-32.4Z"/>
</svg>
