<svg xmlns="http://www.w3.org/2000/svg" width="600" height="200" viewBox="0 0 600 200">
  <defs>
    <style>
      .cls-1 {
        stroke: #000;
        stroke-width: 1px;
        fill-rule: evenodd;
      }
    </style>
  </defs>
  <path id="Contact" class="cls-1" d="M78.727,33.92a47.321,47.321,0,0,0-26.32,7.52,50.237,50.237,0,0,0-18.08,21.12q-6.48,13.6-6.48,31.2,0,18.082,6.32,31.12a45.9,45.9,0,0,0,17.76,19.92q11.438,6.882,26.64,6.88a42.447,42.447,0,0,0,15.84-2.64,67.56,67.56,0,0,0,13.76-7.76,7.017,7.017,0,0,1,3.36-1.28q1.6,0,2.48,2.16a28.414,28.414,0,0,1,1.36,7.28h3.68q-0.641-10.878-.64-38.4h-3.68a113.542,113.542,0,0,1-2.72,15.68,30.713,30.713,0,0,1-4.64,9.6,26.121,26.121,0,0,1-11.84,9.12,41.029,41.029,0,0,1-15.52,3.04A29.358,29.358,0,0,1,61.367,142q-8.243-6.48-12.88-18.96T43.847,93.12q0-17.119,4.32-29.84t12.08-19.6a26.512,26.512,0,0,1,18.16-6.88,41.156,41.156,0,0,1,16.08,3.12,29.589,29.589,0,0,1,12.239,9.36,26.652,26.652,0,0,1,4.8,8.72,124.688,124.688,0,0,1,3.2,14.96h3.68q0-26.4.64-36.8h-3.68q-0.96,9.6-4.16,9.6a5.175,5.175,0,0,1-3.04-1.44,55.5,55.5,0,0,0-13.12-7.68,43.55,43.55,0,0,0-16.32-2.72h0ZM173.285,64.8q-16.32,0-26.32,10.8t-10,32.719q0,21.923,10,32.64t26.32,10.72q16.32,0,26.32-10.72t10-32.64q0-21.918-10-32.719t-26.32-10.8h0Zm0,3.2q9.6,0,15.2,9.84t5.6,30.48q0,20.64-5.6,30.4t-15.2,9.76q-9.6,0-15.2-9.76t-5.6-30.4q0-20.639,5.6-30.479t15.2-9.84h0Zm102.238-3.2a29.167,29.167,0,0,0-16.08,4.56q-7.122,4.56-11.12,14.8V65.28q-6.562,2.243-16.64,2.24-4.8,0-9.92-.48V70.4q6.72,0,9.44,3.36t2.72,10.72v50.079q0,6.563-2.72,9.04t-9.44,2.48v3.36q14.718-.637,19.2-0.64t17.92,0.64v-3.36q-5.922,0-8.24-2.48t-2.32-9.04V99.04a37.713,37.713,0,0,1,2.8-14.8,24.781,24.781,0,0,1,7.92-10.48,18.951,18.951,0,0,1,11.68-3.84q7.837,0,10.4,4.72t2.56,13.68v46.239q0,6.563-2.32,9.04t-8.24,2.48v3.36q13.44-.637,17.92-0.64t19.2,0.64v-3.36q-6.72,0-9.44-2.48t-2.72-9.04V91.84a52.33,52.33,0,0,0-1.28-12.96,18.215,18.215,0,0,0-4.32-8q-5.76-6.079-16.96-6.08h0ZM343.04,40.48a49.673,49.673,0,0,1-14.4,2.24V67.2H313.28v3.2h15.36V124a55.6,55.6,0,0,0,1.36,13.76,18.75,18.75,0,0,0,4.88,8.64,16.907,16.907,0,0,0,6.24,4,26.576,26.576,0,0,0,8.96,1.28q16.8,0,20.8-22.08l-3.2-.8q-2.4,9.12-5.92,13.12a10.91,10.91,0,0,1-8.48,4q-4.96,0-7.6-3.2t-2.64-10.4V70.4h23.68V67.2H343.04V40.48Zm52.319,110.08a31.056,31.056,0,0,0,14.08-3.12q6.24-3.12,11.04-11.12,0,6.563,3.04,10.4t10.72,3.84a17.872,17.872,0,0,0,7.44-1.36,39.1,39.1,0,0,0,7.12-4.56l-1.76-2.72a20.708,20.708,0,0,1-3.6,2.48,7.629,7.629,0,0,1-3.6.88,4.187,4.187,0,0,1-3.84-1.76q-1.122-1.758-1.12-5.76V93.279a55.9,55.9,0,0,0-1.36-13.68,18.079,18.079,0,0,0-5.36-8.88q-6.4-5.917-18.88-5.92a45.341,45.341,0,0,0-12.96,1.76,33.245,33.245,0,0,0-9.76,4.48,22.615,22.615,0,0,0-5.52,5.12,10.678,10.678,0,0,0-1.84,6.4,10.529,10.529,0,0,0,2.24,6.8q2.238,2.8,6.72,2.8a9.4,9.4,0,0,0,6.56-2.32,8.1,8.1,0,0,0,2.56-6.32,9.585,9.585,0,0,0-2.16-6.4,10.071,10.071,0,0,0-5.36-3.36Q394.4,68,405.6,68q7.038,0,10.96,3.44t3.92,12.72v9.92q0,4.32-4.32,6.88a74.5,74.5,0,0,1-13.28,5.6,115.879,115.879,0,0,0-14.16,5.76,29.546,29.546,0,0,0-9.28,7.36,17.707,17.707,0,0,0-3.92,11.84q0,8.962,4.88,14t14.96,5.04h0Zm7.04-6.4a12.242,12.242,0,0,1-9.28-3.68Q389.6,136.8,389.6,129.6a17.829,17.829,0,0,1,2.72-10.24,21.473,21.473,0,0,1,6.48-6.32,73.474,73.474,0,0,1,9.84-4.88q5.28-2.4,7.84-3.84a11.126,11.126,0,0,0,4-3.68V132q-7.522,12.162-18.08,12.16h0ZM493.6,64.8a33.99,33.99,0,0,0-19.36,5.68,37.7,37.7,0,0,0-13.2,15.76,53.725,53.725,0,0,0-4.72,23.039q0,12.8,4.64,22.48a34.762,34.762,0,0,0,12.72,14.8,32.93,32.93,0,0,0,18,5.12q11.84,0,19.28-6.56a33.277,33.277,0,0,0,10.16-15.68l-3.04-1.12q-4,8.482-10.16,12.48a23.543,23.543,0,0,1-13.04,4q-10.24,0-16.64-9.04t-6.4-28.88q0-14.238,3.36-22.96t8.48-12.48a18.3,18.3,0,0,1,11.04-3.76,20.226,20.226,0,0,1,8.72,1.92,12.058,12.058,0,0,1,5.68,4.8,9.361,9.361,0,0,0-4.8,3.12,8.616,8.616,0,0,0-1.92,5.68,7.241,7.241,0,0,0,2.56,5.84,9.344,9.344,0,0,0,6.24,2.16,8.24,8.24,0,0,0,6.08-2.4,8.862,8.862,0,0,0,2.4-6.56q0-7.358-7.52-12.32A33.19,33.19,0,0,0,493.6,64.8h0Zm63.519-24.32a49.673,49.673,0,0,1-14.4,2.24V67.2h-15.36v3.2h15.36V124a55.6,55.6,0,0,0,1.36,13.76,18.75,18.75,0,0,0,4.88,8.64,16.907,16.907,0,0,0,6.24,4,26.576,26.576,0,0,0,8.96,1.28q16.8,0,20.8-22.08l-3.2-.8q-2.4,9.12-5.92,13.12a10.91,10.91,0,0,1-8.48,4q-4.961,0-7.6-3.2t-2.64-10.4V70.4h23.68V67.2h-23.68V40.48Z"/>
</svg>
