<svg xmlns="http://www.w3.org/2000/svg" width="600" height="200" viewBox="0 0 600 200">
  <defs>
    <style>
      .cls-1 {
        stroke: #000;
        stroke-width: 1px;
        fill-rule: evenodd;
      }
    </style>
  </defs>
  <path id="Work" class="cls-1" d="M233.749,33.325q-11.253,0-22.31-.582v3.88q8.73,0.2,12.61,2.813t3.88,9.021q0,6.211-3.1,15.714l-23.862,75.078-27.936-86.33a31.3,31.3,0,0,1-1.94-9.312q0-4.074,2.91-5.335t10.282-1.649v-3.88q-8.148.582-24.832,0.582-11.835,0-18.818-.582v3.88q7.566,0.391,11.446,12.416l5.238,15.326-23.668,75.078L105.321,52.919q-2.137-6.4-2.134-9.506a5.592,5.592,0,0,1,2.134-4.85q2.133-1.55,7.372-1.94v-3.88q-6.984.582-20.952,0.582-12.8,0-20.758-.582v3.88Q80.3,37.014,84.369,49.039L125.5,171.065h3.1l30.846-99.91,33.756,99.91h3.1L232.973,53.5q4.461-14.354,15.326-16.878v-3.88q-5.82.582-14.55,0.582h0Zm53.935,34.144q-19.788,0-31.913,13.1t-12.125,39.673q0,26.582,12.125,39.576t31.913,13q19.788,0,31.913-13t12.125-39.576q0-26.576-12.125-39.673T287.684,67.469h0Zm0,3.88q11.64,0,18.43,11.931t6.79,36.957q0,25.026-6.79,36.86t-18.43,11.834q-11.64,0-18.43-11.834t-6.79-36.86q0-25.026,6.79-36.957t18.43-11.931h0ZM406.8,67.469q-9.312,0-16.975,7.566A45.88,45.88,0,0,0,378.668,92.3V68.051q-7.957,2.719-20.176,2.716-5.82,0-12.028-.582v4.074q8.148,0,11.446,4.074t3.3,13v60.722q0,7.958-3.3,10.961t-11.446,3.007V170.1q17.845-.772,22.892-0.776,5.429,0,25.22.582l4.656,0.194v-4.074q-10.286,0-15.423-3.492t-5.141-12.416V108.985a42.622,42.622,0,0,1,3.492-16.1,41.228,41.228,0,0,1,9.7-14.453q6.206-5.915,13.774-5.917a4.653,4.653,0,0,1,4.074,1.94q-6.6,4.074-6.6,10.476a9.428,9.428,0,0,0,3.007,7.372,10.455,10.455,0,0,0,7.275,2.716,9.967,9.967,0,0,0,8.051-3.589,13,13,0,0,0,3.007-8.633,14.092,14.092,0,0,0-4.947-10.864q-4.947-4.46-12.707-4.462h0ZM515.05,155.933l-35.114-47.918L503.6,83.183q7.953-8.339,17.46-9.118v-3.88q-7.761.778-16.878,0.776-8.343,0-21.922-.776v3.88a27.5,27.5,0,0,1,10.379,1.649q3.975,1.651,3.977,4.947,0,4.27-6.208,10.67l-14.356,14.938a27.2,27.2,0,0,1-7.275,5.335,31.214,31.214,0,0,1-9.409,2.619V18q-7.956,2.719-20.176,2.716-5.82,0-12.028-.582v4.074q8.148,0,11.446,4.074t3.3,13V152.053q0,7.958-3.3,10.961t-11.446,3.007V170.1q17.847-.772,23.474-0.776,5.238,0,21.534.776v-4.074q-7.179,0-9.991-3.007t-2.813-10.961V118.3a20.561,20.561,0,0,1,8.245,2.037q3.006,1.651,6.305,6.5l22.31,32.592a4.4,4.4,0,0,1,1.164,2.91,3.087,3.087,0,0,1-1.649,2.619,7.92,7.92,0,0,1-4.365,1.067V170.1q16.3-.772,21.534-0.776,4.074,0,15.714.776v-4.074a14.146,14.146,0,0,1-6.984-2.91,41.229,41.229,0,0,1-6.6-7.178h0Z"/>
</svg>
